<svg xmlns="http://www.w3.org/2000/svg" width="100" height="127" viewBox="0 0 100 127">
  <g id="Group_481" data-name="Group 481" transform="translate(-1044 -445)">
    <g id="Group_123" data-name="Group 123" transform="translate(75 107.667)">
      <g id="Group_122" data-name="Group 122" transform="translate(-2.583 -28)">
        <rect id="Rectangle_1425" data-name="Rectangle 1425" width="100" height="127" rx="8" transform="translate(971.583 365.333)" fill="#11c4e0"/>
      </g>
    </g>
    <path id="trash" d="M45.547-39.75H34.781L31.3-44.387a4.955,4.955,0,0,0-3.975-1.988H19.047a4.955,4.955,0,0,0-3.975,1.988L11.594-39.75H.828A.829.829,0,0,0,0-38.922v1.656a.829.829,0,0,0,.828.828H2.785L6.221,2.1a4.976,4.976,0,0,0,4.948,4.524H35.206A4.976,4.976,0,0,0,40.154,2.1L43.59-36.437h1.956a.829.829,0,0,0,.828-.828v-1.656a.829.829,0,0,0-.827-.829ZM17.722-42.4a1.662,1.662,0,0,1,1.325-.663h8.281a1.662,1.662,0,0,1,1.325.663l1.988,2.65H15.734ZM36.851,1.8A1.648,1.648,0,0,1,35.21,3.31H11.165A1.649,1.649,0,0,1,9.523,1.8L6.107-36.437h34.16Z" transform="translate(1071 529)" fill="#fff"/>
  </g>
</svg>
